<svg width="182" height="170" viewBox="0 0 182 170" fill="none" xmlns="http://www.w3.org/2000/svg">
<rect x="134.887" y="89.4962" width="17.1285" height="17.1285" rx="8.56423" fill="#54A7D7"/>
<path d="M147.161 94.5135L139.569 97.4412C139.051 97.6493 139.054 97.9384 139.474 98.0673L141.423 98.6753L145.933 95.8298C146.146 95.7001 146.341 95.7699 146.181 95.9121L142.527 99.2097H142.526L142.527 99.2102L142.393 101.219C142.59 101.219 142.677 101.129 142.787 101.022L143.734 100.102L145.703 101.556C146.066 101.756 146.327 101.654 146.418 101.22L147.71 95.1276C147.843 94.597 147.508 94.3568 147.161 94.5135Z" fill="white"/>
<path d="M116.398 129.765L116.215 129.746C113.782 129.488 111.947 127.675 111.947 125.53C111.947 124.986 112.459 124.543 113.088 124.543H116.398V123.389H113.088C111.769 123.389 110.697 124.349 110.697 125.53C110.697 128.307 113.052 130.614 116.176 130.898L116.398 130.918V129.765Z" fill="#F6469D"/>
<path d="M116.399 133.503H120.33C120.485 133.503 120.631 133.423 120.711 133.289C122.469 130.359 123.374 126.582 123.136 122.551C123.123 122.319 122.925 122.135 122.692 122.135H114.029C113.796 122.135 113.598 122.319 113.585 122.551C113.347 126.582 114.26 130.359 116.018 133.29C116.098 133.423 116.244 133.503 116.399 133.503Z" fill="#F6469D"/>
<path d="M119.303 121.143C118.879 120.798 118.603 120.335 118.624 119.879C118.619 119.422 118.919 119.012 119.134 118.481C119.34 117.982 119.513 117.359 119.332 116.767C119.157 116.186 118.769 115.763 118.354 115.414C118.591 115.905 118.845 116.384 118.907 116.859C118.968 117.328 118.822 117.792 118.618 118.27C118.525 118.519 118.413 118.732 118.308 119.013C118.206 119.288 118.143 119.6 118.191 119.91C118.267 120.547 118.779 121.011 119.303 121.143Z" fill="#BBCAEA"/>
<path d="M117.541 113.46C117.273 113.837 117.04 114.253 116.977 114.758C116.942 115.008 116.968 115.27 117.051 115.527C117.129 115.779 117.327 116.029 117.508 116.183C117.697 116.339 117.818 116.44 117.89 116.592C117.975 116.742 118.004 116.931 118.011 117.128C118.017 117.522 117.853 117.95 117.725 118.398C118.047 118.068 118.349 117.686 118.445 117.169C118.494 116.916 118.473 116.64 118.371 116.375C118.267 116.103 118.029 115.9 117.877 115.765C117.567 115.529 117.443 115.188 117.41 114.774C117.382 114.368 117.483 113.923 117.541 113.46Z" fill="#BBCAEA"/>
<path d="M109.585 107.914C109.585 108.077 109.332 108.224 108.82 108.292H107.517C107.005 108.224 106.752 108.077 106.752 107.91C106.752 107.744 107.005 107.601 107.517 107.529H108.82C109.332 107.601 109.585 107.744 109.585 107.914ZM114.685 107.914C114.685 108.077 114.432 108.224 113.92 108.292H112.617C112.105 108.224 111.852 108.077 111.852 107.91C111.852 107.744 112.105 107.601 112.617 107.529H113.92C114.432 107.601 114.685 107.744 114.685 107.914ZM119.785 107.914C119.785 108.077 119.532 108.224 119.02 108.292H117.717C117.205 108.224 116.952 108.077 116.952 107.91C116.952 107.744 117.205 107.601 117.717 107.529H119.02C119.532 107.601 119.785 107.744 119.785 107.914ZM124.885 107.914C124.885 108.077 124.632 108.224 124.12 108.292H122.817C122.305 108.224 122.052 108.077 122.052 107.91C122.052 107.744 122.305 107.601 122.817 107.529H124.12C124.632 107.601 124.885 107.744 124.885 107.914ZM127.38 105.301C127.543 105.301 127.69 105.555 127.757 106.067V107.369C127.726 107.604 127.679 107.785 127.62 107.91L127.483 108.204L127.376 108.154C127.226 108.085 127.152 108.001 127.152 107.91C127.152 107.82 127.226 107.737 127.376 107.668L127.134 107.91C127.076 107.785 127.028 107.604 126.995 107.369V106.067C127.067 105.555 127.209 105.301 127.38 105.301ZM127.38 100.201C127.543 100.201 127.69 100.455 127.757 100.967V102.269C127.69 102.781 127.543 103.035 127.376 103.035C127.209 103.035 127.067 102.781 126.995 102.269V100.967C127.067 100.455 127.209 100.201 127.38 100.201ZM127.38 95.1012C127.543 95.1012 127.69 95.3547 127.757 95.8671V97.1692C127.69 97.6811 127.543 97.9346 127.376 97.9346C127.209 97.9346 127.067 97.6811 126.995 97.1692V95.8671C127.067 95.3547 127.209 95.1012 127.38 95.1012ZM127.38 90.0012C127.543 90.0012 127.69 90.2547 127.757 90.7671V92.0692C127.69 92.5811 127.543 92.8346 127.376 92.8346C127.209 92.8346 127.067 92.5811 126.995 92.0692V90.7671C127.067 90.2547 127.209 90.0012 127.38 90.0012ZM127.434 84.9634C127.434 85.008 127.415 85.0515 127.376 85.0923L127.509 84.9593C127.618 85.0599 127.708 85.2954 127.757 85.6671V86.9692C127.69 87.4811 127.543 87.7346 127.376 87.7346C127.209 87.7346 127.067 87.4811 126.995 86.9692V85.6671C127.047 85.2954 127.136 85.0599 127.247 84.9593L127.376 84.83C127.415 84.8718 127.434 84.9166 127.434 84.9634ZM132.534 84.9634C132.534 85.1261 132.281 85.273 131.768 85.3405H130.466C129.954 85.273 129.701 85.1261 129.701 84.9593C129.701 84.7926 129.954 84.6497 130.466 84.5782H131.768C132.281 84.6497 132.534 84.7926 132.534 84.9634ZM137.634 84.9634C137.634 85.1261 137.381 85.273 136.868 85.3405H135.566C135.054 85.273 134.801 85.1261 134.801 84.9593C134.801 84.7926 135.054 84.6497 135.566 84.5782H136.868C137.381 84.6497 137.634 84.7926 137.634 84.9634ZM142.734 84.9634C142.734 85.1261 142.481 85.273 141.968 85.3405H140.666C140.154 85.273 139.901 85.1261 139.901 84.9593C139.901 84.7926 140.154 84.6497 140.666 84.5782H141.968C142.481 84.6497 142.734 84.7926 142.734 84.9634ZM147.834 84.9634C147.834 85.1261 147.581 85.273 147.068 85.3405H145.766C145.254 85.273 145.001 85.1261 145.001 84.9593C145.001 84.7926 145.254 84.6497 145.766 84.5782H147.068C147.581 84.6497 147.834 84.7926 147.834 84.9634ZM152.934 84.9634C152.934 85.1261 152.681 85.273 152.168 85.3405H150.866C150.354 85.273 150.101 85.1261 150.101 84.9593C150.101 84.7926 150.354 84.6497 150.866 84.5782H152.168C152.681 84.6497 152.934 84.7926 152.934 84.9634ZM155.326 82.2473C155.489 82.2473 155.636 82.5008 155.703 83.0131V84.3153C155.663 84.6236 155.593 84.838 155.508 84.9593L155.359 85.1709L155.322 85.1451C155.241 85.0888 155.201 85.0256 155.201 84.9593C155.201 84.8931 155.241 84.8305 155.322 84.7747L155.138 84.9593C155.053 84.838 154.984 84.6236 154.941 84.3153V83.0131C155.013 82.5008 155.156 82.2473 155.326 82.2473ZM155.326 77.1473C155.489 77.1473 155.636 77.4008 155.703 77.9131V79.2153C155.636 79.7272 155.489 79.9807 155.322 79.9807C155.156 79.9807 155.013 79.7272 154.941 79.2153V77.9131C155.013 77.4008 155.156 77.1473 155.326 77.1473ZM155.326 72.0473C155.489 72.0473 155.636 72.3008 155.703 72.8131V74.1153C155.636 74.6272 155.489 74.8807 155.322 74.8807C155.156 74.8807 155.013 74.6272 154.941 74.1153V72.8131C155.013 72.3008 155.156 72.0473 155.326 72.0473ZM155.326 66.9473C155.489 66.9473 155.636 67.2008 155.703 67.7131V69.0153C155.636 69.5272 155.489 69.7807 155.322 69.7807C155.156 69.7807 155.013 69.5272 154.941 69.0153V67.7131C155.013 67.2008 155.156 66.9473 155.326 66.9473ZM155.326 61.8473C155.489 61.8473 155.636 62.1008 155.703 62.6131V63.9153C155.636 64.4272 155.489 64.6807 155.322 64.6807C155.156 64.6807 155.013 64.4272 154.941 63.9153V62.6131C155.013 62.1008 155.156 61.8473 155.326 61.8473ZM155.326 57.2466C155.489 57.2466 155.636 57.4554 155.703 57.8775V58.9502C155.636 59.3719 155.489 59.5807 155.322 59.5807C155.156 59.5807 155.013 59.3719 154.941 58.9502V57.8775C155.013 57.4554 155.156 57.2466 155.326 57.2466Z" fill="#BBCAEA"/>
<path d="M140.33 60.1826V68.2193C140.33 69.2391 139.503 70.0658 138.479 70.0658H107.172L101.574 75.0724V70.0658H97.8934C96.8736 70.0658 96.0427 69.2391 96.0427 68.2193V60.1826C96.0427 59.1586 96.8736 58.3319 97.8934 58.3319H138.479C139.503 58.3319 140.33 59.1586 140.33 60.1826Z" fill="#E4ECF9"/>
<path d="M121.091 63.1578L119.715 64.1557C119.662 64.1943 119.642 64.2622 119.662 64.3251L120.185 65.9382C120.233 66.0787 120.073 66.195 119.957 66.1078L118.581 65.1099C118.528 65.0711 118.46 65.0711 118.407 65.1099L117.031 66.1078C116.915 66.195 116.755 66.0787 116.804 65.9382L117.327 64.3251C117.346 64.2622 117.327 64.1943 117.274 64.1557L115.898 63.1578C115.782 63.0755 115.84 62.8866 115.985 62.8866H117.685C117.748 62.8866 117.806 62.8478 117.826 62.7848L118.354 61.1668C118.397 61.0313 118.591 61.0313 118.635 61.1668L119.163 62.7848C119.182 62.8478 119.24 62.8866 119.303 62.8866H121.003C121.149 62.8866 121.207 63.0755 121.091 63.1578ZM105.038 63.1578L103.662 64.1557C103.609 64.1943 103.589 64.2622 103.609 64.3251L104.132 65.9382C104.18 66.0787 104.02 66.195 103.904 66.1078L102.528 65.1099C102.475 65.0711 102.407 65.0711 102.354 65.1099L100.978 66.1078C100.862 66.195 100.702 66.0787 100.751 65.9382L101.274 64.3251C101.293 64.2622 101.274 64.1943 101.221 64.1557L99.8449 63.1578C99.7286 63.0755 99.7867 62.8866 99.932 62.8866H101.632C101.695 62.8866 101.753 62.8478 101.773 62.7848L102.301 61.1668C102.344 61.0313 102.538 61.0313 102.582 61.1668L103.11 62.7848C103.129 62.8478 103.187 62.8866 103.25 62.8866H104.95C105.096 62.8866 105.154 63.0755 105.038 63.1578ZM113.064 63.1578L111.688 64.1557C111.635 64.1943 111.616 64.2622 111.635 64.3251L112.158 65.9382C112.207 66.0787 112.047 66.195 111.931 66.1078L110.555 65.1099C110.502 65.0711 110.434 65.0711 110.381 65.1099L109.005 66.1078C108.889 66.195 108.729 66.0787 108.777 65.9382L109.3 64.3251C109.32 64.2622 109.3 64.1943 109.247 64.1557L107.871 63.1578C107.755 63.0755 107.813 62.8866 107.959 62.8866H109.659C109.722 62.8866 109.78 62.8478 109.799 62.7848L110.327 61.1668C110.371 61.0313 110.565 61.0313 110.608 61.1668L111.136 62.7848C111.156 62.8478 111.214 62.8866 111.277 62.8866H112.977C113.122 62.8866 113.18 63.0755 113.064 63.1578Z" fill="#FCC230"/>
<path d="M127.741 64.1557C127.688 64.1943 127.669 64.2622 127.688 64.3251L128.211 65.9382C128.26 66.0787 128.1 66.195 127.984 66.1078L126.608 65.1099C126.555 65.0711 126.487 65.0711 126.434 65.1099L125.058 66.1078C124.942 66.195 124.782 66.0787 124.83 65.9382L125.353 64.3251C125.373 64.2622 125.353 64.1943 125.3 64.1557L123.924 63.1578C123.808 63.0755 123.866 62.8866 124.012 62.8866H125.712C125.775 62.8866 125.833 62.8478 125.852 62.7848L126.38 61.1668C126.424 61.0313 126.618 61.0313 126.661 61.1668L127.189 62.7848C127.209 62.8478 127.267 62.8866 127.33 62.8866H129.03C129.175 62.8866 129.233 63.0755 129.117 63.1578L127.741 64.1557ZM135.58 64.1557C135.526 64.1943 135.507 64.2622 135.526 64.3251L136.05 65.9382C136.098 66.0787 135.938 66.195 135.822 66.1078L134.446 65.1099C134.393 65.0711 134.325 65.0711 134.272 65.1099L132.896 66.1078C132.78 66.195 132.62 66.0787 132.668 65.9382L133.192 64.3251C133.211 64.2622 133.192 64.1943 133.138 64.1557L131.763 63.1578C131.646 63.0755 131.704 62.8866 131.85 62.8866H133.55C133.613 62.8866 133.671 62.8478 133.69 62.7848L134.219 61.1668C134.262 61.0313 134.456 61.0313 134.499 61.1668L135.027 62.7848C135.047 62.8478 135.105 62.8866 135.168 62.8866H136.868C137.013 62.8866 137.072 63.0755 136.955 63.1578L135.58 64.1557Z" fill="#BBCAEA"/>
<path d="M106.725 88.3143C106.665 88.356 106.587 88.3723 106.492 88.3789C106.037 89.5643 100.996 102.595 94.8708 110.287C91.7691 114.18 88.3932 116.703 85.1905 115.621C75.378 112.292 71.6046 105.733 71.6046 105.733L81.9035 93.827C81.9035 93.827 83.6698 95.438 85.6231 97.0871C87.8836 98.9931 90.3889 100.942 90.7013 100.496C91.1968 99.801 99.1241 88.7292 101.699 85.2938C101.699 85.2938 101.699 85.2938 101.7 85.2889C101.645 84.0963 101.565 81.0511 102.006 80.6233C102.567 80.0911 103.431 82.5628 103.401 83.285C103.371 84.0072 110.459 74.0837 110.915 78.0869C111.372 82.0901 107.475 87.8153 106.725 88.3143Z" fill="#FEC9AC"/>
<path opacity="0.5" d="M94.5246 110.712C91.5166 114.321 88.2195 116.642 85.0443 115.584C75.3159 112.328 71.5031 106.124 71.5031 106.124L81.5044 95.0964C81.5044 95.0964 83.2694 96.6315 85.2194 98.2049C85.8803 100.896 86.8921 103.492 88.4802 105.746C89.9971 107.899 92.1154 109.706 94.5246 110.712Z" fill="#FFAB90"/>
<path d="M28.6613 114.745C28.8616 114.845 29.062 114.926 29.2623 114.986L28.5705 121.74L28.1331 133.214H75.8797L74.1584 113.781L73.7265 111.023C74.0677 111.255 74.6186 111.386 75.2883 111.311C75.3165 111.308 75.3447 111.305 75.3728 111.302C75.4167 111.296 75.4636 111.286 75.5105 111.28C75.5669 111.271 75.6264 111.258 75.6858 111.246C75.6984 111.242 75.7109 111.239 75.7234 111.236C75.7954 111.22 75.8674 111.202 75.9394 111.18C76.0677 111.142 76.1991 111.098 76.3338 111.045C76.3525 111.039 76.3744 111.033 76.3963 111.023C76.4715 110.992 76.5466 110.958 76.6248 110.923C76.6655 110.904 76.7062 110.886 76.7469 110.864C76.7876 110.845 76.8251 110.823 76.869 110.801C76.9128 110.779 76.9535 110.757 76.9972 110.732C77.0755 110.688 77.1569 110.638 77.2383 110.588C77.326 110.535 77.4167 110.476 77.5044 110.413C77.5826 110.357 77.6609 110.297 77.7423 110.238C77.7829 110.206 77.8236 110.175 77.8674 110.138C77.9113 110.103 77.955 110.069 77.9957 110.031C78.3777 109.712 78.7657 109.318 79.1476 108.845C79.1914 108.792 79.2321 108.738 79.2759 108.682C79.3166 108.629 79.3604 108.573 79.4011 108.516C80.337 107.267 81.2321 105.521 81.9614 103.126C82.0021 102.992 82.0428 102.854 82.0835 102.716C82.2838 102.022 82.4716 101.274 82.6406 100.472C82.675 100.313 82.7094 100.15 82.7408 99.984C82.7752 99.8212 82.8065 99.6522 82.8378 99.4832C82.9317 98.9761 83.0194 98.4471 83.1007 97.8963C83.1257 97.7179 83.1539 97.5363 83.179 97.3517C83.2103 97.1044 83.2415 96.854 83.2729 96.6005C83.3355 96.0747 83.3949 95.53 83.445 94.9698C83.445 94.9698 82.1367 91.7835 76.5998 86.666C75.1851 85.3608 73.498 83.9304 71.4855 82.3936C70.5746 81.6956 69.6795 81.0758 68.8124 80.5626C62.6805 76.9113 55.7547 75.9625 48.6711 77.0414C41.0588 78.2174 34.1703 81.6806 28.7051 86.6754C27.1182 88.1277 25.7004 89.5174 24.4609 90.8007C20.3513 95.0449 18.1759 98.0872 18.1759 98.0872C18.1759 98.0872 18.3293 98.4878 18.611 99.1701C19.9945 102.529 24.4609 112.688 28.6613 114.745Z" fill="#64D3FF"/>
<path d="M42.1788 78.7907L46.2468 77.5061L58.2367 76.6497L61.6624 77.5061C64.9168 80.4179 60.7346 86.1417 58.2367 88.6396L53.9546 83.7151L50.9571 89.9242C47.0176 88.8965 43.4634 82.0737 42.1788 78.7907Z" fill="white"/>
<path d="M59.6039 77.8807C58.9724 79.7502 56.6293 81.0353 54.8539 81.5228C53.1699 81.9853 51.3863 82.0241 49.6967 81.5781C45.8912 80.5727 45.797 78.2158 45.797 78.2158C47.248 77.7467 47.0089 70.016 47.0129 69.9594H57.1195C57.1195 69.9594 57.4159 73.0309 57.7372 75.3962C57.8036 75.8727 57.9698 76.3296 58.2302 76.7256C58.46 77.0829 58.7619 77.396 59.1275 77.6313C59.4017 77.8086 59.6039 77.8807 59.6039 77.8807Z" fill="#FEC9AC"/>
<path opacity="0.5" d="M58.2302 76.7256C54.7764 77.9748 50.6994 77.5676 47.7746 75.3519C47.4672 75.1193 47.1764 74.87 46.8994 74.6041C47.085 72.38 47.013 69.9594 47.013 69.9594H57.1195C57.1195 69.9594 57.4159 73.0309 57.7372 75.3962C57.8037 75.8727 57.9698 76.3296 58.2302 76.7256Z" fill="#FFAB90"/>
<path d="M60.5103 66.5457C60.2381 68.4813 59.845 70.5226 58.5234 71.962C57.3501 73.2383 55.584 73.8461 53.8511 73.9277C52.9106 73.973 51.958 73.8763 51.0689 73.5648C49.2665 72.9359 47.8724 71.5023 46.6204 70.0659C46.1554 69.5356 45.6977 68.9943 45.266 68.4342C44.8193 67.8547 44.261 67.3774 43.6621 66.9569C43.6593 66.955 43.6565 66.953 43.6537 66.9511C43.1759 66.6154 42.7858 66.1677 42.4168 65.7201C42.1205 65.3634 41.8211 64.9854 41.7455 64.5347C41.6759 64.1264 41.8029 63.7001 42.0388 63.3645C42.184 63.1648 42.3594 62.9924 42.559 62.8472C42.1719 60.7545 42.3957 58.5409 43.2273 56.5782C44.3341 53.9654 46.5024 51.8212 49.1304 50.7477L58.9196 49.2114C58.9619 50.675 59.5879 52.045 60.0325 53.4362C61.3812 57.6337 61.1212 62.1759 60.5103 66.5457Z" fill="#FEC9AC"/>
<path d="M64.4697 53.8879C64.0773 54.7987 63.5849 55.6873 62.8556 56.3611C62.1262 57.0348 61.1303 57.468 60.1455 57.3421C59.3273 57.2348 58.6091 56.7646 57.8501 56.4314C57.3466 56.2056 56.6654 56.2759 56.0545 56.4723C55.3881 56.6943 54.6884 56.8054 53.9887 56.7423L53.3741 56.6906C53.4667 56.2463 54.0961 56.2279 54.4478 55.939C51.9673 55.6761 49.4016 57.2237 48.476 59.5413C48.1391 60.3929 47.1025 63.4434 47.1025 63.4434C47.1025 63.4434 46.077 62.7475 45.629 62.5734C45.0329 62.344 44.3554 62.1773 43.7223 62.3366C43.2262 62.4588 42.7672 62.8141 42.6265 63.3066C42.3896 62.3105 41.8906 61.5055 41.464 60.641C40.8239 59.3438 40.6051 57.8678 40.7383 56.4278C40.7902 55.8538 40.8901 55.2875 41.016 54.7247C41.2048 53.8769 41.4566 53.0401 41.7083 52.2071C42.0934 50.9447 42.4895 49.6638 43.2151 48.5605C44.2296 47.0203 45.8363 45.9281 47.5764 45.3098C49.3127 44.6916 51.1824 44.5177 53.0261 44.5361C54.2108 44.5509 55.4029 44.6435 56.5358 44.9953C57.665 45.3469 58.7313 45.98 59.4532 46.9204C59.679 47.2166 59.8679 47.5386 60.0456 47.8681C60.3084 48.3606 60.5454 48.8751 60.8378 49.3527C61.5561 50.5262 62.6371 51.4778 63.8922 52.0406C64.1143 52.1406 64.3513 52.2331 64.5105 52.4218C64.8437 52.8143 64.6771 53.4141 64.4697 53.8879Z" fill="#2E363A"/>
<path opacity="0.5" d="M45.1958 66.2276C45.218 66.4498 45.0403 66.6719 44.8219 66.6978C44.7145 66.7126 44.6109 66.6868 44.5109 66.6459C44.1629 66.5091 43.8963 66.2202 43.6668 65.9241C43.2485 65.3872 42.8782 64.7653 42.8634 64.084C42.8597 63.8692 42.8967 63.6398 43.0411 63.4806C43.2447 63.2548 43.6039 63.24 43.9 63.3215C44.4961 63.4806 44.9885 63.973 45.1551 64.5654L45.1958 66.2276Z" fill="#FFAB90"/>
<path d="M59.2534 52.1999C58.5166 52.6588 57.5614 52.4996 56.721 52.2812C55.4104 51.9406 54.0813 51.4853 52.7374 51.6555C51.4046 51.8184 50.1718 52.6366 49.4943 53.7917C49.3277 54.0804 49.1907 54.3878 48.9907 54.6544C48.502 55.3023 47.6764 55.6206 46.8694 55.6799C46.0586 55.739 45.2552 55.5688 44.4629 55.3985C43.6854 55.2356 42.9117 55.0691 42.1379 54.9024C41.764 54.8209 41.3974 54.7432 41.0161 54.7247C41.2049 53.8769 41.4567 53.0401 41.7084 52.2071C42.0934 50.9447 42.4896 49.6638 43.2152 48.5605C44.2297 47.0203 45.8364 45.9281 47.5765 45.3098C49.3128 44.6916 51.1825 44.5177 53.0262 44.5361C54.2109 44.5509 55.403 44.6435 56.5359 44.9953C57.6651 45.3469 58.7314 45.98 59.4533 46.9204C59.6791 47.2166 59.8679 47.5386 60.0457 47.8681C60.1123 48.4161 60.2234 48.9676 60.2641 49.5193C60.3418 50.5226 60.1086 51.6704 59.2534 52.1999Z" fill="#3A4146"/>
<path d="M50.1907 61.1154C50.1515 61.0922 50.1453 61.0054 50.2074 60.8615C50.2705 60.7203 50.4058 60.5191 50.6647 60.333C51.1167 60.0428 51.699 59.9512 52.2182 60.0887C52.5214 60.1863 52.7118 60.3362 52.815 60.4512C52.918 60.5693 52.9384 60.6542 52.9074 60.6892C52.8372 60.7724 52.6019 60.6095 52.1096 60.5191C51.6991 60.4121 51.258 60.4815 50.9001 60.7092C50.4589 60.9465 50.2851 61.1741 50.1907 61.1154ZM56.5365 59.8418C56.4767 59.7843 56.6089 59.4873 57.1403 59.2039C57.6018 59.0035 58.112 58.9237 58.6126 58.9737C59.2046 59.081 59.4213 59.3233 59.381 59.3986C59.3376 59.4959 59.0728 59.4287 58.5695 59.4155C58.1452 59.3724 57.7073 59.4411 57.3164 59.6116C56.8406 59.778 56.6092 59.923 56.5365 59.8418ZM54.4665 67.4005C54.5043 67.3665 54.6293 67.4662 54.8631 67.6295C54.9796 67.7071 55.1312 67.7988 55.3094 67.8365C55.4789 67.8732 55.7208 67.8415 55.8455 67.7029C56.071 67.4996 55.9092 66.8863 55.8532 66.4094C55.7738 65.9099 55.6689 65.4144 55.5404 64.925C55.2685 63.7633 55.0953 63.1879 55.194 63.1492C55.2751 63.1155 55.6095 63.6355 55.9697 64.8121C56.1019 65.3156 56.2098 65.8254 56.2916 66.3394C56.3335 66.5979 56.3666 66.8513 56.3955 67.1167C56.4077 67.253 56.4154 67.4002 56.388 67.5594C56.3619 67.7174 56.2885 67.89 56.158 68.0181C55.8286 68.3041 55.4598 68.2722 55.2076 68.1899C54.95 68.0946 54.7959 67.9458 54.6877 67.8273C54.4785 67.5818 54.4324 67.4306 54.4665 67.4005ZM55.1727 70.2747C55.1837 70.3171 55.0903 70.3954 54.8713 70.4652C54.6539 70.5322 54.3057 70.6006 53.8413 70.5495C53.0622 70.4312 52.3168 70.0774 51.7669 69.4823C51.4598 69.1125 51.3552 68.7309 51.3686 68.4862C51.3807 68.2379 51.467 68.1359 51.5085 68.1457C51.6186 68.1588 51.5289 68.6103 52.098 69.1866C52.5558 69.6847 53.2238 70.0105 53.9065 70.1104C54.7153 70.2586 55.1473 70.1597 55.1727 70.2747Z" fill="#4F2D2A"/>
<path d="M58.1044 63.7638C58.3855 63.7638 58.6133 63.3546 58.6133 62.8498C58.6133 62.345 58.3855 61.9357 58.1044 61.9357C57.8234 61.9357 57.5956 62.345 57.5956 62.8498C57.5956 63.3546 57.8234 63.7638 58.1044 63.7638Z" fill="#4F2D2A"/>
<path d="M52.1407 64.2665C52.4218 64.2665 52.6496 63.8572 52.6496 63.3524C52.6496 62.8476 52.4218 62.4384 52.1407 62.4384C51.8597 62.4384 51.6319 62.8476 51.6319 63.3524C51.6319 63.8572 51.8597 64.2665 52.1407 64.2665Z" fill="#4F2D2A"/>
<path d="M83.4442 94.9708C82.0043 110.88 75.4033 112.161 73.7256 111.024L74.1576 113.782C72.2702 109.322 70.3797 104.858 68.4892 100.398C69.3593 102.079 71.9916 102.029 73.3844 100.749C74.7804 99.4686 75.2343 97.4811 75.5535 95.6187C76.0637 92.6547 76.4111 89.6656 76.5989 86.6671C82.1358 91.7845 83.4442 94.9708 83.4442 94.9708Z" fill="#42C1F4"/>
<path d="M72.8971 104.588C72.2899 103.615 71.667 102.647 71.0379 101.683C70.631 101.057 70.2241 100.431 69.8141 99.8086C69.5793 100.247 69.3289 100.676 69.0598 101.098C69.0097 101.183 68.9533 101.27 68.897 101.355C66.1051 105.662 61.8201 108.998 56.9437 110.61C51.608 112.372 45.4329 112.109 40.0383 109.534C37.2721 110.449 35.0722 112.639 32.8345 114.422C31.5352 115.458 30.2581 116.522 28.9943 117.603L28.5706 121.74L28.1331 133.214H75.8797L74.1585 113.781L73.7265 111.023C74.0677 111.255 74.6186 111.386 75.2883 111.311C75.3166 111.308 75.3447 111.305 75.3729 111.302C75.4167 111.295 75.4636 111.286 75.5106 111.28C75.567 111.271 75.6264 111.258 75.6858 111.245C75.6984 111.242 75.711 111.239 75.7235 111.236C75.7955 111.22 75.8675 111.202 75.9394 111.18C76.0677 111.142 76.1992 111.098 76.3338 111.045C76.3526 111.039 76.3744 111.033 76.3964 111.023C76.4715 110.992 76.5466 110.957 76.6249 110.923C75.4731 108.767 74.2085 106.663 72.8971 104.588Z" fill="#42C1F4"/>
<path d="M38.6254 133.214H105.516C105.76 133.214 105.958 133.016 105.958 132.772V130.932C105.958 130.688 105.76 130.49 105.516 130.49H38.6254C38.3813 130.49 38.1834 130.688 38.1834 130.932V132.772C38.1834 133.016 38.3813 133.214 38.6254 133.214Z" fill="#42C1B8"/>
<path d="M54.194 130.494H104.5L106.581 122.6L113.463 96.4189C113.849 94.9554 112.961 93.7714 111.498 93.7714H66.5033C66.0675 93.7714 65.6399 93.8701 65.2287 94.0593C64.2503 94.4868 63.428 95.383 63.1566 96.4189L54.194 130.494Z" fill="#42C1B8"/>
<path d="M54.194 130.494H104.5L106.581 122.6C105.158 122.847 103.719 123.019 102.272 123.11C93.1859 123.661 83.9271 120.545 77.0119 114.608C70.9024 109.362 66.6924 101.969 65.2287 94.0593C64.2503 94.4869 63.428 95.383 63.1566 96.4189L54.194 130.494Z" fill="#2CA299"/>
<path d="M62.4162 130.496H54.1935L54.3415 129.945C56.282 129.781 59.5711 129.994 62.4162 130.496Z" fill="#3A4146"/>
<path d="M88.2576 113.66C88.9502 111.57 88.0836 109.403 86.3219 108.819C84.5603 108.235 82.5707 109.456 81.8781 111.546C81.1855 113.636 82.0522 115.803 83.8138 116.387C85.5755 116.971 87.565 115.75 88.2576 113.66Z" fill="#3A4146"/>
<path d="M87.7231 113.483C88.2995 111.744 87.578 109.94 86.1117 109.454C84.6453 108.968 82.9893 109.984 82.4129 111.723C81.8365 113.463 82.5579 115.267 84.0243 115.753C85.4906 116.238 87.1466 115.222 87.7231 113.483Z" fill="white"/>
<path d="M51.7621 132.172C51.7653 133.72 42.6677 135.076 36.4454 133.646C34.9902 133.309 33.0287 132.462 30.8473 131.239C23.6921 127.227 14.2124 119.225 12.7667 112.327C12.5533 111.289 12.4578 110.312 12.4673 109.401C12.5247 102.37 18.4444 98.9435 18.4444 98.9435C18.4794 98.9977 18.5144 99.0518 18.5558 99.1091C18.5558 99.1123 18.559 99.1123 18.559 99.1155C18.5749 99.1569 18.5908 99.1983 18.6099 99.2397C19.9123 102.395 23.931 111.557 27.8986 114.356C27.8158 114.432 27.7394 114.499 27.6726 114.566C27.6534 114.585 27.6375 114.607 27.6375 114.633C27.0102 116.028 37.388 126.654 37.388 126.654C37.388 126.654 38.6554 127.412 40.3877 126.896C42.1263 126.38 45.3966 125.374 45.8074 126.873C46.2118 128.38 38.7605 130.255 41.6614 129.975C44.0687 129.749 49.4121 130.344 51.1826 131.44C51.5456 131.659 51.7621 131.908 51.7621 132.172Z" fill="#FEC9AC"/>
<path opacity="0.5" d="M27.8987 114.356C27.8159 114.432 27.7395 114.499 27.6726 114.566C27.6535 114.585 27.6376 114.607 27.6376 114.633C24.8736 112.359 21.581 110.732 18.0909 109.949C16.2472 109.531 14.3589 109.353 12.4674 109.401C12.5247 102.37 18.4444 98.9434 18.4444 98.9434C18.4794 98.9976 18.5144 99.0517 18.5559 99.109C18.5559 99.1122 18.559 99.1122 18.559 99.1154C18.575 99.1568 18.5909 99.1982 18.61 99.2396C19.9124 102.395 23.931 111.557 27.8987 114.356Z" fill="#FFAB90"/>
<path d="M51.8095 132.174C51.8157 133.721 42.7186 135.079 36.4907 133.648C35.0408 133.311 33.077 132.461 30.8929 131.238C26.4943 128.772 21.2085 124.789 17.4584 120.489H31.725C34.4106 123.554 37.4328 126.655 37.4328 126.655C37.4328 126.655 38.7053 127.414 40.4367 126.894C41.0729 126.704 41.911 126.453 42.7431 126.276L41.8987 129.494C41.0056 129.873 40.6018 130.081 41.7091 129.977C41.7274 129.977 41.7519 129.971 41.7764 129.971C43.2202 129.849 45.6673 130.008 47.7841 130.381C49.2278 130.638 50.5187 130.999 51.2283 131.44C51.5954 131.66 51.8095 131.91 51.8095 132.174Z" fill="#FEC9AC"/>
<path d="M45.5531 61.3821C45.5531 61.3821 43.531 60.3185 42.5152 61.1337C42.5152 61.1337 41.8479 55.8843 43.5547 52.235L46.2603 53.1544C46.2603 53.1544 44.9703 60.1434 45.5531 61.3821Z" fill="#D1DCF8"/>
<path d="M41.3589 65.3068C41.67 66.6546 42.4651 67.7314 43.4431 68.3007C44.1221 68.6965 44.8896 68.8472 45.6434 68.6732C47.4826 68.2488 48.5467 66.0532 48.0194 63.7694C47.4924 61.4856 45.574 59.9787 43.7348 60.4031C42.8433 60.6087 42.1341 61.2304 41.6996 62.0764C41.2379 62.9761 41.087 64.1296 41.3589 65.3068Z" fill="#FE4C40"/>
<path opacity="0.5" d="M41.3589 65.3069C41.67 66.6547 42.4651 67.7315 43.4431 68.3008C43.4994 68.316 43.5562 68.3289 43.6133 68.3396C43.8809 68.3898 44.1482 68.3871 44.4078 68.3317C45.1071 68.1821 45.6814 67.6706 46.0246 66.8902C46.3588 66.1307 46.4341 65.2026 46.2363 64.2769C45.896 62.6828 44.8611 61.42 43.7189 61.206C43.4706 61.1595 43.2213 61.1623 42.9781 61.2143C42.4888 61.3187 42.0439 61.6228 41.6996 62.0765C41.2379 62.9762 41.087 64.1297 41.3589 65.3069Z" fill="#2E363A"/>
<path d="M41.2603 65.339C41.6525 67.1764 43.0447 68.4365 44.3697 68.1537C45.6947 67.8708 46.4509 66.152 46.0586 64.3146C45.6664 62.4772 44.3409 61.1088 43.0159 61.3917C41.6908 61.6746 40.868 63.5016 41.2603 65.339Z" fill="#3A4146"/>
<path d="M43.1621 68.0062C43.5504 68.1821 43.9634 68.2405 44.3699 68.1539C45.6948 67.8709 46.4509 66.152 46.0586 64.3147C45.6963 62.618 44.5388 61.3216 43.3201 61.3554C44.3801 61.5364 45.3791 62.6626 45.7826 64.1321C46.2799 65.9443 45.6239 67.7036 44.3172 68.0622C43.936 68.1669 43.542 68.1407 43.1621 68.0062Z" fill="#2E363A"/>
<path d="M46.2369 53.2174C46.2369 53.2174 47.7946 48.2694 60.1322 47.3056C60.1322 47.3056 59.214 44.8609 57.3927 44.9045C55.5714 44.948 47.3043 44.627 43.5548 52.235L46.2369 53.2174Z" fill="#D1DCF8"/>
<path d="M87.2819 36.7836V44.9022C87.2819 45.4765 86.6991 45.9394 85.976 45.9394H72.0817L69.9988 48.3395L67.916 45.9394H65.9571C65.234 45.9394 64.6513 45.4765 64.6513 44.9022V36.7836C64.6513 36.2093 65.234 35.7464 65.9571 35.7464H85.976C86.6991 35.7464 87.2819 36.2093 87.2819 36.7836Z" fill="#FED44A"/>
<path d="M155.322 59.458C156.543 59.458 157.533 58.468 157.533 57.2469C157.533 56.0257 156.543 55.0357 155.322 55.0357C154.101 55.0357 153.111 56.0257 153.111 57.2469C153.111 58.468 154.101 59.458 155.322 59.458Z" fill="#BBCAEA"/>
<rect x="150.302" y="47.5315" width="17.1285" height="17.1285" rx="8.56423" fill="#526C8E"/>
<g clip-path="url(#clip0_1_32)">
<path fill-rule="evenodd" clip-rule="evenodd" d="M163.77 53.5041C163.841 53.2703 163.77 53.0981 163.429 53.0981H162.305C162.019 53.0981 161.887 53.2467 161.816 53.4107C161.816 53.4107 161.244 54.7793 160.434 55.6683C160.172 55.926 160.053 56.0078 159.91 56.0078C159.839 56.0078 159.731 55.926 159.731 55.6918V53.5041C159.731 53.2232 159.652 53.0981 159.414 53.0981H157.647C157.468 53.0981 157.36 53.2283 157.36 53.3521C157.36 53.618 157.766 53.6796 157.807 54.4282V56.0545C157.807 56.4112 157.742 56.4759 157.599 56.4759C157.217 56.4759 156.29 55.1009 155.74 53.5276C155.634 53.2215 155.526 53.0981 155.238 53.0981H154.113C153.792 53.0981 153.728 53.2467 153.728 53.4107C153.728 53.7028 154.109 55.1535 155.503 57.0724C156.432 58.3827 157.74 59.0931 158.932 59.0931C159.647 59.0931 159.735 58.9355 159.735 58.6636V57.6731C159.735 57.3576 159.803 57.2946 160.029 57.2946C160.196 57.2946 160.482 57.3768 161.149 58.0084C161.911 58.7574 162.037 59.0931 162.466 59.0931H163.59C163.911 59.0931 164.072 58.9355 163.979 58.6238C163.877 58.3137 163.513 57.8637 163.031 57.3297C162.769 57.0257 162.376 56.6981 162.256 56.5341C162.09 56.3238 162.137 56.2301 162.256 56.0429C162.256 56.0429 163.627 54.1477 163.769 53.5041H163.77Z" fill="white"/>
</g>
<rect x="28.262" y="27.8338" width="14.5592" height="14.5592" rx="7.2796" fill="#65CE72"/>
<g clip-path="url(#clip1_1_32)">
<path fill-rule="evenodd" clip-rule="evenodd" d="M37.5125 35.9804C37.404 35.9261 36.8722 35.6648 36.7732 35.6284C36.6742 35.5924 36.6021 35.5745 36.5297 35.683C36.4576 35.7907 36.2505 36.0346 36.1876 36.1067C36.1242 36.1791 36.0613 36.1878 35.9532 36.134C35.8451 36.0794 35.4964 35.9654 35.0833 35.5971C34.7619 35.3103 34.5446 34.9561 34.4816 34.8477C34.4186 34.7395 34.4747 34.6809 34.5289 34.6271C34.5777 34.5787 34.637 34.5008 34.6913 34.4378C34.7455 34.3745 34.7633 34.3293 34.7994 34.2569C34.8358 34.1848 34.8176 34.1219 34.7903 34.0676C34.7633 34.0134 34.5471 33.4809 34.4569 33.2643C34.3691 33.0536 34.28 33.0823 34.2137 33.0787C34.1504 33.0758 34.0783 33.0751 34.0062 33.0751C33.9342 33.0751 33.817 33.102 33.718 33.2105C33.6186 33.3186 33.3394 33.5803 33.3394 34.1128C33.3394 34.6449 33.7267 35.1592 33.7809 35.2316C33.8352 35.3037 34.5435 36.3964 35.6285 36.8648C35.8869 36.9762 36.0882 37.0428 36.2451 37.0923C36.5042 37.1749 36.7401 37.1633 36.9265 37.1353C37.1339 37.1043 37.5663 36.8736 37.6566 36.621C37.7465 36.3684 37.7465 36.1518 37.7196 36.1067C37.6926 36.0615 37.6206 36.0346 37.5121 35.9804H37.5125ZM35.539 38.6749H35.5375C34.8931 38.675 34.2604 38.5018 33.706 38.1733L33.5749 38.0954L32.2129 38.4529L32.5765 37.1251L32.491 36.9889C32.1307 36.4154 31.94 35.7517 31.941 35.0744C31.9417 33.0907 33.5556 31.4768 35.5404 31.4768C36.5013 31.4768 37.4047 31.8517 38.0839 32.5316C38.4189 32.8653 38.6844 33.262 38.8651 33.6989C39.0458 34.1358 39.138 34.6042 39.1365 35.077C39.1358 37.0606 37.5219 38.6749 35.539 38.6749ZM38.6008 32.0152C38.1997 31.6115 37.7226 31.2914 37.1969 31.0735C36.6713 30.8555 36.1076 30.7441 35.5386 30.7456C33.1531 30.7456 31.2109 32.6874 31.2101 35.074C31.2098 35.8369 31.4089 36.5816 31.7878 37.2379L31.1738 39.4811L33.4683 38.8791C34.103 39.2249 34.8143 39.4061 35.5371 39.4061H35.539C37.9245 39.4061 39.8667 37.4643 39.8674 35.0773C39.8692 34.5085 39.7581 33.945 39.5407 33.4194C39.3233 32.8938 39.0038 32.4165 38.6008 32.0152Z" fill="white"/>
</g>
<rect x="119.471" y="43.6776" width="11.5617" height="11.5617" rx="5.78086" fill="#735FF2"/>
<g clip-path="url(#clip2_1_32)">
<path d="M125.078 45.991C124.521 45.9977 123.325 46.0892 122.655 46.7033C122.157 47.1967 121.983 47.9262 121.963 48.8282C121.946 49.727 121.926 51.4149 123.553 51.8745V52.5744C123.553 52.5744 123.542 52.8545 123.728 52.912C123.956 52.9842 124.085 52.7687 124.302 52.5372L124.707 52.08C125.82 52.1725 126.672 51.9592 126.771 51.9276C126.996 51.8554 128.269 51.6928 128.477 50.0047C128.69 48.2613 128.373 47.1629 127.8 46.666H127.797C127.624 46.5069 126.93 46.001 125.378 45.9953C125.378 45.9953 125.263 45.9875 125.078 45.9908V45.991ZM125.097 46.4811C125.255 46.48 125.351 46.4868 125.351 46.4868C126.664 46.4902 127.291 46.8854 127.439 47.0185C127.921 47.4317 128.169 48.422 127.988 49.8775C127.815 51.2887 126.783 51.378 126.592 51.4389C126.511 51.4649 125.76 51.6501 124.814 51.5892C124.814 51.5892 124.109 52.4394 123.889 52.6583C123.854 52.6967 123.813 52.708 123.787 52.7023C123.75 52.6932 123.739 52.6471 123.741 52.5838L123.748 51.422C122.368 51.0405 122.449 49.6008 122.464 48.8488C122.481 48.0968 122.622 47.4816 123.042 47.0649C123.607 46.5535 124.624 46.4846 125.097 46.4811H125.097ZM125.201 47.2329C125.19 47.2328 125.179 47.2349 125.168 47.2392C125.158 47.2435 125.148 47.2498 125.14 47.2578C125.132 47.2657 125.125 47.2752 125.121 47.2857C125.117 47.2962 125.114 47.3074 125.114 47.3188C125.114 47.3673 125.154 47.4057 125.201 47.4057C125.416 47.4016 125.63 47.4401 125.83 47.519C126.03 47.5979 126.212 47.7156 126.366 47.8653C126.681 48.1712 126.835 48.5822 126.841 49.1196C126.841 49.1671 126.879 49.2065 126.928 49.2065V49.203C126.951 49.2031 126.973 49.1941 126.989 49.178C127.005 49.162 127.014 49.1401 127.015 49.1172C127.025 48.8642 126.984 48.6118 126.894 48.3752C126.804 48.1386 126.667 47.9228 126.491 47.7408C126.148 47.4055 125.713 47.2327 125.201 47.2327V47.2329ZM124.059 47.4317C123.997 47.4228 123.935 47.4351 123.881 47.4666H123.877C123.753 47.5393 123.641 47.6311 123.546 47.7387C123.467 47.8302 123.424 47.9227 123.413 48.0118C123.406 48.0649 123.41 48.1181 123.426 48.1688L123.432 48.1722C123.521 48.4341 123.637 48.686 123.78 48.9232C123.963 49.2564 124.188 49.5645 124.45 49.84L124.458 49.8512L124.47 49.8603L124.478 49.8694L124.487 49.8772C124.764 50.1401 125.073 50.3666 125.407 50.5512C125.788 50.7589 126.02 50.8571 126.159 50.8978V50.9C126.199 50.9124 126.236 50.918 126.274 50.918C126.392 50.9093 126.504 50.8613 126.592 50.7814C126.699 50.6862 126.79 50.5741 126.861 50.4495V50.4474C126.928 50.3221 126.905 50.2035 126.809 50.1233C126.617 49.9552 126.409 49.8058 126.188 49.6774C126.04 49.5972 125.89 49.6457 125.829 49.727L125.699 49.8907C125.632 49.972 125.511 49.9607 125.511 49.9607L125.508 49.9629C124.606 49.7324 124.365 48.8191 124.365 48.8191C124.365 48.8191 124.354 48.6949 124.438 48.6316L124.6 48.5007C124.678 48.4374 124.732 48.2874 124.649 48.1393C124.521 47.9182 124.372 47.7102 124.204 47.5182C124.167 47.473 124.115 47.4422 124.058 47.4313L124.059 47.4317ZM125.351 47.6893C125.236 47.6893 125.236 47.8631 125.352 47.8631C125.495 47.8654 125.637 47.8959 125.768 47.9529C125.899 48.0098 126.018 48.0921 126.118 48.195C126.209 48.2952 126.278 48.4125 126.323 48.5401C126.368 48.6677 126.386 48.803 126.378 48.9379C126.378 48.9608 126.387 48.9825 126.403 48.9986C126.42 49.0146 126.442 49.0237 126.464 49.0238L126.468 49.0283C126.491 49.0281 126.513 49.0189 126.529 49.0027C126.545 48.9864 126.555 48.9644 126.555 48.9414C126.563 48.5969 126.456 48.308 126.246 48.0764C126.034 47.8449 125.74 47.7151 125.364 47.6893H125.351ZM125.494 48.1566C125.375 48.1532 125.371 48.3305 125.488 48.334C125.774 48.3487 125.913 48.4931 125.931 48.7901C125.931 48.8126 125.94 48.8341 125.956 48.85C125.972 48.8658 125.994 48.8747 126.017 48.8748H126.02C126.032 48.8743 126.043 48.8715 126.054 48.8666C126.064 48.8617 126.073 48.8547 126.081 48.8461C126.089 48.8374 126.095 48.8274 126.099 48.8164C126.103 48.8055 126.104 48.7939 126.104 48.7823C126.083 48.3951 125.872 48.177 125.497 48.1569H125.494V48.1566Z" fill="white"/>
</g>
<g clip-path="url(#clip3_1_32)">
<rect x="12.8463" y="63.3753" width="9.84887" height="9.84887" rx="4.92443" fill="#317AEA"/>
<path d="M18.344 73.223V69.8596H19.4786L19.6473 68.5427H18.344V67.7039C18.344 67.3239 18.4499 67.0637 18.9952 67.0637H19.6863V65.8897C19.3501 65.8536 19.0121 65.8362 18.6739 65.8375C17.671 65.8375 16.9824 66.4498 16.9824 67.5738V68.5402H15.8551V69.8571H16.9848V73.223H18.344Z" fill="white"/>
</g>
<rect x="91.2091" y="35.5416" width="17.1285" height="17.1285" rx="8.56423" fill="#F7931E"/>
<path d="M97.8803 45.1315C98.2527 45.5091 98.986 45.6758 99.7171 45.6807M101.678 45.1315C101.394 45.4784 100.557 45.6863 99.7171 45.6807M98.0944 47.9712L99.7171 45.6807M99.7171 45.6807L101.407 47.9261" stroke="white" stroke-width="1.01419" stroke-linecap="round" stroke-linejoin="round"/>
<path d="M101.407 42.3817C101.407 43.2754 100.678 44.0044 99.7733 44.0044C98.8684 44.0044 98.1394 43.2754 98.1394 42.3817C98.1394 41.4881 98.8684 40.759 99.7733 40.759C100.678 40.759 101.407 41.4881 101.407 42.3817Z" stroke="white" stroke-width="1.01419"/>
<rect x="170" y="77.5063" width="11.5617" height="11.5617" rx="5.78086" fill="white"/>
<circle cx="174.001" cy="81.507" r="1.43145" fill="#43A3F0"/>
<circle cx="177.46" cy="84.8469" r="1.78931" fill="#9DC347"/>
<circle cx="174.001" cy="84.847" r="0.715725" fill="#916DE7"/>
<circle cx="177.341" cy="81.5067" r="1.07359" fill="#E76866"/>
<defs>
<clipPath id="clip0_1_32">
<rect width="10.2771" height="10.2771" fill="white" transform="translate(153.728 50.9572)"/>
</clipPath>
<clipPath id="clip1_1_32">
<rect width="8.73552" height="8.73552" fill="white" transform="translate(31.1738 30.7456)"/>
</clipPath>
<clipPath id="clip2_1_32">
<rect width="6.93703" height="6.93703" fill="white" transform="translate(121.783 45.99)"/>
</clipPath>
<clipPath id="clip3_1_32">
<rect x="12.8463" y="63.3753" width="9.84887" height="9.84887" rx="4.92443" fill="white"/>
</clipPath>
</defs>
</svg>
