<svg width="123" height="23" viewBox="0 0 123 23" fill="none" xmlns="http://www.w3.org/2000/svg">
<g clip-path="url(#clip0_1_7)">
<path d="M62.8083 6.17386L61.9349 9.70886C61.2556 9.38677 60.6086 9.22566 59.994 9.22566C59.2823 9.22566 58.7485 9.47998 58.3927 9.98861C58.0531 10.4972 57.8832 11.15 57.8832 11.9469V18.2539H53.4677V5.89411H57.4708L57.5921 7.4963C57.6245 7.44544 57.6649 7.38606 57.7134 7.31828C57.7619 7.23347 57.8751 7.0894 58.0531 6.88594C58.2472 6.66558 58.4494 6.47904 58.6596 6.32645C58.8698 6.15691 59.1448 6.01278 59.4845 5.89411C59.8403 5.75847 60.2123 5.69065 60.6005 5.69065C61.0533 5.69065 61.4658 5.73304 61.8378 5.81781C62.2099 5.90259 62.4605 5.97888 62.5899 6.0467L62.8083 6.17386ZM71.981 5.89411V9.35282H69.2394V13.2184C69.2394 13.8457 69.3122 14.312 69.4578 14.6172C69.6034 14.9055 69.9188 15.0495 70.404 15.0495L71.6898 14.9478V18.2794C71.0913 18.415 70.2988 18.4828 69.3122 18.4828C67.808 18.4828 66.6839 18.0844 65.9399 17.2875C65.2121 16.4737 64.8482 15.4141 64.8482 14.1085V9.35282L63.0528 9.25109V5.89411H64.9209L65.3576 2.10478H69.2394V5.89411H71.981ZM74.2945 17.1858V0.451721H78.7101V5.99583C79.3409 5.79238 79.9554 5.69065 80.5539 5.69065C82.333 5.69065 83.7807 6.28406 84.8967 7.47087C86.0288 8.65764 86.595 10.1835 86.595 12.0486C86.595 13.9983 85.9884 15.5582 84.7754 16.728C83.5784 17.8979 82.0015 18.4828 80.0444 18.4828C79.0416 18.4828 78.055 18.3811 77.0846 18.1776C76.1302 17.9573 75.4267 17.7368 74.9738 17.5164L74.2945 17.1858ZM82.1551 12.0486C82.1551 11.15 81.9691 10.4549 81.5971 9.96318C81.2412 9.47146 80.7399 9.22566 80.0929 9.22566C79.8179 9.22566 79.5592 9.26801 79.3166 9.35282C79.0901 9.4206 78.9364 9.4885 78.8556 9.55627L78.7101 9.68343V14.5918C79.0173 14.8292 79.4783 14.9478 80.0929 14.9478C80.756 14.9478 81.2655 14.702 81.6214 14.2103C81.9772 13.7186 82.1551 12.9981 82.1551 12.0486ZM95.9825 5.89411V9.35282H93.241V13.2184C93.241 13.8457 93.3137 14.312 93.4593 14.6172C93.6049 14.9055 93.9203 15.0495 94.4055 15.0495L95.6913 14.9478V18.2794C95.0929 18.415 94.3003 18.4828 93.3137 18.4828C91.8095 18.4828 90.6854 18.0844 89.9414 17.2875C89.2136 16.4737 88.8497 15.4141 88.8497 14.1085V9.35282L87.0543 9.25109V5.89411H88.9225L89.3592 2.10478H93.241V5.89411H95.9825ZM110.402 10.9042V18.2539H106.011V10.9804C106.011 10.4379 105.898 10.014 105.671 9.70886C105.461 9.38677 105.162 9.22566 104.774 9.22566C104.418 9.22566 104.07 9.31048 103.731 9.47998C103.391 9.64948 103.132 9.81911 102.954 9.98861L102.712 10.2429V18.2539H98.296V5.89411H102.396L102.517 7.0131C102.631 6.91138 102.784 6.78422 102.978 6.63163C103.173 6.47904 103.561 6.28406 104.143 6.0467C104.725 5.79238 105.291 5.66522 105.841 5.66522C107.394 5.66522 108.542 6.13147 109.286 7.06397C110.03 7.99642 110.402 9.27652 110.402 10.9042Z" fill="#211D2E"/>
<path d="M22.9715 5.69053C23.5377 5.69053 24.0472 5.79226 24.5 5.99571C24.9691 6.18222 25.2845 6.36867 25.4462 6.55521L25.7131 6.86039C26.9908 6.06353 28.2605 5.6651 29.5221 5.6651C31.0263 5.6651 32.1666 6.09744 32.9429 6.96212C33.7193 7.8268 34.1075 9.08986 34.1075 10.7514V18.2538H29.8132V10.9549C29.8132 9.80195 29.425 9.22554 28.6487 9.22554C28.3899 9.22554 28.1231 9.30184 27.8481 9.45443C27.5731 9.5901 27.371 9.73417 27.2415 9.88676L27.0232 10.1157V18.2538H22.6804V10.9549C22.6804 10.3614 22.6076 9.92911 22.4621 9.65788C22.3165 9.36961 22.0577 9.22554 21.6857 9.22554C21.3946 9.22554 21.0953 9.31875 20.788 9.50529C20.4969 9.67479 20.2704 9.84442 20.1087 10.0139L19.8904 10.2682V18.2538H15.4991V5.89399H19.5992L19.6963 7.03841C19.8095 6.93669 19.955 6.80953 20.133 6.65694C20.3271 6.50435 20.7071 6.30941 21.2733 6.07201C21.8555 5.81769 22.4217 5.69053 22.9715 5.69053Z" fill="#211D2E"/>
<path d="M4.99914 22.8773V20.6205C4.09177 20.4821 3.22565 20.2573 2.40076 19.946C1.59238 19.6348 1.00671 19.3581 0.643764 19.116L0.124088 18.7528L2.07906 14.6283C2.22754 14.7493 2.44201 14.8963 2.72247 15.0693C3.00293 15.2249 3.5556 15.4497 4.38048 15.7437C5.22186 16.0204 6.05499 16.1588 6.87987 16.1588C7.62227 16.1588 8.20793 16.0291 8.63687 15.7697C9.06581 15.5102 9.28028 15.173 9.28028 14.758C9.28028 14.464 9.05756 14.2132 8.61213 14.0057C8.18319 13.7809 7.63877 13.5993 6.97886 13.461C6.33545 13.3226 5.62605 13.1237 4.85066 12.8643C4.09177 12.5876 3.38237 12.2764 2.72247 11.9305C2.07906 11.5846 1.53464 11.0572 1.0892 10.3481C0.660262 9.62179 0.445792 8.77441 0.445792 7.80597C0.445792 6.52624 0.858233 5.41081 1.68312 4.45966C2.5245 3.50852 3.62984 2.84271 4.99914 2.46226V0.0238647H9.20604V2.20285C10.0804 2.28932 10.8971 2.43632 11.6559 2.64384C12.4148 2.85136 12.9593 3.04159 13.2892 3.21453L13.7841 3.47393L11.8044 7.67626C10.5011 7.0364 9.14005 6.71647 7.72125 6.71647C6.23647 6.71647 5.49407 7.06234 5.49407 7.75409C5.49407 7.96161 5.6178 8.14319 5.86527 8.29883C6.12923 8.45447 6.46743 8.58418 6.87987 8.68794C7.30881 8.77441 7.78724 8.88681 8.31517 9.02516C8.84309 9.16351 9.38752 9.31051 9.94844 9.46615C10.5094 9.62179 11.0538 9.84661 11.5817 10.1406C12.1096 10.4346 12.5798 10.7718 12.9923 11.1523C13.4212 11.5327 13.7594 12.0342 14.0069 12.6568C14.2708 13.2621 14.4028 13.9538 14.4028 14.732C14.4028 16.0636 13.9409 17.2742 13.017 18.3637C12.1096 19.4359 10.8393 20.1622 9.20604 20.5427V22.8773H4.99914Z" fill="url(#paint0_linear_1_7)"/>
<path fill-rule="evenodd" clip-rule="evenodd" d="M50.953 16.4611C51.7033 15.1218 52.1336 13.5615 52.1336 11.896C52.1336 6.90985 48.2775 2.86774 43.5208 2.86774C38.7642 2.86774 34.9081 6.90985 34.9081 11.896C34.9081 16.8821 38.7642 20.9243 43.5208 20.9243C45.1097 20.9243 46.598 20.4732 47.8759 19.6867L52.0794 20.8674L50.953 16.4611Z" fill="url(#paint1_radial_1_7)"/>
<path d="M39.4537 13.6514C40.3786 13.6514 41.1284 12.8655 41.1284 11.8959C41.1284 10.9264 40.3786 10.1404 39.4537 10.1404C38.5288 10.1404 37.779 10.9264 37.779 11.8959C37.779 12.8655 38.5288 13.6514 39.4537 13.6514Z" fill="white"/>
<path d="M43.5208 13.6514C44.4457 13.6514 45.1955 12.8655 45.1955 11.8959C45.1955 10.9264 44.4457 10.1404 43.5208 10.1404C42.5959 10.1404 41.8461 10.9264 41.8461 11.8959C41.8461 12.8655 42.5959 13.6514 43.5208 13.6514Z" fill="white"/>
<path d="M47.5879 13.6514C48.5128 13.6514 49.2626 12.8655 49.2626 11.8959C49.2626 10.9264 48.5128 10.1404 47.5879 10.1404C46.663 10.1404 45.9132 10.9264 45.9132 11.8959C45.9132 12.8655 46.663 13.6514 47.5879 13.6514Z" fill="white"/>
<path d="M119.216 2.10461H115.576C113.567 2.10461 111.937 3.81254 111.937 5.91937V7.65335C111.937 9.76019 113.567 11.4681 115.576 11.4681H119.216C121.226 11.4681 122.855 9.76019 122.855 7.65335V5.91937C122.855 3.81254 121.226 2.10461 119.216 2.10461Z" fill="url(#paint2_radial_1_7)"/>
<path d="M119.28 6.12201H115.452C115.086 6.12201 114.788 6.43359 114.788 6.81794C114.788 7.20229 115.086 7.51387 115.452 7.51387H119.28C119.647 7.51387 119.944 7.20229 119.944 6.81794C119.944 6.43359 119.647 6.12201 119.28 6.12201Z" fill="white"/>
<path d="M118.033 8.80753V4.82858C118.033 4.44233 117.734 4.12921 117.366 4.12921C116.997 4.12921 116.699 4.44233 116.699 4.82858V8.80753C116.699 9.19378 116.997 9.5069 117.366 9.5069C117.734 9.5069 118.033 9.19378 118.033 8.80753Z" fill="white"/>
</g>
<defs>
<linearGradient id="paint0_linear_1_7" x1="-0.148123" y1="13.549" x2="11.6186" y2="13.549" gradientUnits="userSpaceOnUse">
<stop stop-color="#42C1B8"/>
<stop offset="1" stop-color="#3BA49D"/>
</linearGradient>
<radialGradient id="paint1_radial_1_7" cx="0" cy="0" r="1" gradientUnits="userSpaceOnUse" gradientTransform="translate(42.6596 7.92356) rotate(73.934) scale(14.9384 14.3587)">
<stop stop-color="#F6469D"/>
<stop offset="1" stop-color="#984063"/>
</radialGradient>
<radialGradient id="paint2_radial_1_7" cx="0" cy="0" r="1" gradientUnits="userSpaceOnUse" gradientTransform="translate(116.85 4.72639) rotate(70.6084) scale(7.89166 8.93321)">
<stop stop-color="#F6469D"/>
<stop offset="1" stop-color="#984063"/>
</radialGradient>
<clipPath id="clip0_1_7">
<rect width="123" height="23" fill="white"/>
</clipPath>
</defs>
</svg>
