<svg width="46" height="23" viewBox="0 0 46 23" fill="none" xmlns="http://www.w3.org/2000/svg">
<g clip-path="url(#clip0_1_22)">
<path d="M5.11804 22.8775V20.6207C4.18899 20.4823 3.30218 20.2575 2.4576 19.9462C1.62991 19.635 1.03025 19.3583 0.658635 19.1161L0.126547 18.753L2.12821 14.6285C2.28024 14.7495 2.49983 14.8965 2.78699 15.0695C3.07414 15.2251 3.64002 15.4499 4.4846 15.7439C5.34607 16.0206 6.1991 16.1589 7.04369 16.1589C7.80381 16.1589 8.40347 16.0292 8.84265 15.7698C9.28183 15.5104 9.50143 15.1732 9.50143 14.7582C9.50143 14.4642 9.27339 14.2134 8.81731 14.0059C8.37813 13.7811 7.8207 13.5995 7.14504 13.4612C6.48626 13.3228 5.75992 13.1239 4.96601 12.8645C4.18899 12.5878 3.46265 12.2765 2.78699 11.9307C2.12821 11.5848 1.57079 11.0573 1.11471 10.3483C0.675526 9.62198 0.455935 8.7746 0.455935 7.80616C0.455935 6.52643 0.878226 5.411 1.72281 4.45985C2.58429 3.50871 3.71603 2.84291 5.11804 2.46245V0.0240555H9.42541V2.20304C10.3207 2.28951 11.1568 2.43651 11.9338 2.64403C12.7108 2.85155 13.2683 3.04178 13.6061 3.21472L14.1129 3.47412L12.0859 7.67646C10.7514 7.03659 9.35785 6.71666 7.90516 6.71666C6.38491 6.71666 5.62479 7.06253 5.62479 7.75428C5.62479 7.9618 5.75147 8.14338 6.00485 8.29902C6.27512 8.45467 6.6214 8.58437 7.04369 8.68813C7.48287 8.7746 7.97273 8.887 8.51326 9.02535C9.0538 9.1637 9.61122 9.3107 10.1855 9.46634C10.7599 9.62198 11.3173 9.8468 11.8578 10.1408C12.3983 10.4348 12.8798 10.772 13.3021 11.1525C13.7412 11.5329 14.0875 12.0344 14.3409 12.657C14.6112 13.2623 14.7463 13.954 14.7463 14.7322C14.7463 16.0638 14.2733 17.2744 13.3274 18.3639C12.3983 19.4361 11.0977 20.1624 9.42541 20.5429V22.8775H5.11804Z" fill="url(#paint0_linear_1_22)"/>
<path fill-rule="evenodd" clip-rule="evenodd" d="M32.3811 16.4614C33.1493 15.1221 33.5899 13.5618 33.5899 11.8963C33.5899 6.91018 29.6417 2.86806 24.7714 2.86806C19.9012 2.86806 15.953 6.91018 15.953 11.8963C15.953 16.8825 19.9012 20.9246 24.7714 20.9246C26.3983 20.9246 27.9221 20.4735 29.2305 19.6871L33.5344 20.8677L32.3811 16.4614Z" fill="url(#paint1_radial_1_22)"/>
<path d="M20.6054 13.6513C21.5524 13.6513 22.3201 12.8653 22.3201 11.8958C22.3201 10.9263 21.5524 10.1403 20.6054 10.1403C19.6584 10.1403 18.8907 10.9263 18.8907 11.8958C18.8907 12.8653 19.6584 13.6513 20.6054 13.6513Z" fill="white"/>
<path d="M24.7692 13.6513C25.7162 13.6513 26.4839 12.8653 26.4839 11.8958C26.4839 10.9263 25.7162 10.1403 24.7692 10.1403C23.8222 10.1403 23.0545 10.9263 23.0545 11.8958C23.0545 12.8653 23.8222 13.6513 24.7692 13.6513Z" fill="white"/>
<path d="M28.9331 13.6513C29.8801 13.6513 30.6478 12.8653 30.6478 11.8958C30.6478 10.9263 29.8801 10.1403 28.9331 10.1403C27.9861 10.1403 27.2184 10.9263 27.2184 11.8958C27.2184 12.8653 27.9861 13.6513 28.9331 13.6513Z" fill="white"/>
<path d="M42.1258 2.10417H38.3997C36.3419 2.10417 34.6736 3.8121 34.6736 5.91893V7.65291C34.6736 9.75974 36.3419 11.4677 38.3997 11.4677H42.1258C44.1837 11.4677 45.8519 9.75974 45.8519 7.65291V5.91893C45.8519 3.8121 44.1837 2.10417 42.1258 2.10417Z" fill="url(#paint2_linear_1_22)"/>
<path d="M42.1894 6.12215H38.2703C37.8949 6.12215 37.5905 6.43372 37.5905 6.81808C37.5905 7.20243 37.8949 7.51401 38.2703 7.51401H42.1894C42.5648 7.51401 42.8692 7.20243 42.8692 6.81808C42.8692 6.43372 42.5648 6.12215 42.1894 6.12215Z" fill="white"/>
<path d="M40.9148 8.80757V4.82863C40.9148 4.44238 40.6089 4.12926 40.2316 4.12926C39.8544 4.12926 39.5485 4.44238 39.5485 4.82863V8.80757C39.5485 9.19383 39.8544 9.50695 40.2316 9.50695C40.6089 9.50695 40.9148 9.19383 40.9148 8.80757Z" fill="white"/>
</g>
<defs>
<linearGradient id="paint0_linear_1_22" x1="-0.152166" y1="13.5491" x2="11.8956" y2="13.5491" gradientUnits="userSpaceOnUse">
<stop stop-color="#42C1B8"/>
<stop offset="1" stop-color="#3BA49D"/>
</linearGradient>
<radialGradient id="paint1_radial_1_22" cx="0" cy="0" r="1" gradientUnits="userSpaceOnUse" gradientTransform="translate(23.8896 7.92389) rotate(73.5707) scale(14.966 14.6745)">
<stop stop-color="#F6469D"/>
<stop offset="1" stop-color="#984063"/>
</radialGradient>
<linearGradient id="paint2_linear_1_22" x1="34.6736" y1="6.78592" x2="45.8519" y2="6.78592" gradientUnits="userSpaceOnUse">
<stop stop-color="#2A8CB7"/>
<stop offset="1" stop-color="#46C1F6"/>
</linearGradient>
<clipPath id="clip0_1_22">
<rect width="46" height="23" fill="white"/>
</clipPath>
</defs>
</svg>
